<?xml version="1.0" encoding="utf-8"?>
<!-- Generator: Adobe Illustrator 16.0.0, SVG Export Plug-In . SVG Version: 6.00 Build 0)  -->
<!DOCTYPE svg PUBLIC "-//W3C//DTD SVG 1.1//EN" "http://www.w3.org/Graphics/SVG/1.1/DTD/svg11.dtd">
<svg version="1.1" id="Layer_1" xmlns="http://www.w3.org/2000/svg" xmlns:xlink="http://www.w3.org/1999/xlink" x="0px" y="0px"
	 width="1545.057px" height="165.763px" viewBox="0 0 1545.057 165.763" enable-background="new 0 0 1545.057 165.763"
	 xml:space="preserve">
<g>
	<g>
		<g>
			<path fill="#FFFFFF" d="M1001.348,165.763h-23.221V2.299h23.221V165.763z"/>
			<path fill="#FFFFFF" d="M1211.018,165.763h-23.221V84.146c0-16.783-5.978-31.268-17.933-42.993
				c-11.725-11.955-25.979-17.933-42.763-17.933s-31.267,5.978-43.222,17.933c-11.725,11.725-17.703,26.21-17.703,42.993v81.616
				h-23.22V84.146c0-23.221,8.276-42.993,24.6-59.316C1083.879,8.276,1103.881,0,1127.102,0c23.22,0,42.992,8.276,59.315,24.83
				c16.324,16.323,24.601,36.095,24.601,59.316V165.763z"/>
			<path fill="#FFFFFF" d="M1253.316,165.763V2.299h81.387c22.761,0,42.073,8.047,57.937,23.91
				c15.863,15.864,23.91,35.176,23.91,57.938c0,22.53-8.047,41.843-23.91,57.706s-35.176,23.91-57.937,23.91H1253.316z
				 M1276.536,25.52v117.023h58.167c16.094,0,29.888-5.749,41.383-17.014c11.495-11.496,17.243-25.29,17.243-41.383
				c0-16.094-5.748-29.889-17.243-41.384c-11.495-11.496-25.289-17.243-41.383-17.243H1276.536z"/>
			<path fill="#FFFFFF" d="M1476.779,165.763h-23.221V2.299h23.221V165.763z"/>
			<path fill="#FFFFFF" d="M1545.057,165.763h-23.221V2.299h23.221V165.763z"/>
		</g>
	</g>
	<path fill="#FFFFFF" d="M288.18,24.83C271.857,8.276,252.085,0,228.865,0s-43.223,8.276-59.546,24.83
		c-5.097,5.097-9.408,10.529-12.929,16.299c-3.521-5.77-7.833-11.202-12.929-16.299C127.138,8.276,107.366,0,84.146,0
		S40.923,8.276,24.6,24.83C8.276,41.153,0,60.926,0,84.146v81.616h23.22V84.146c0-16.783,5.978-31.268,17.703-42.993
		c11.955-11.955,26.439-17.933,43.222-17.933s31.037,5.978,42.763,17.933c11.307,11.09,17.259,24.65,17.872,40.287
		c-0.025,0.899-0.061,1.796-0.061,2.706v81.616h0.122h23.098h0.123V84.146c0-0.918-0.036-1.821-0.062-2.729
		c0.618-15.627,6.559-29.18,17.642-40.265c11.955-11.955,26.439-17.933,43.223-17.933s31.037,5.978,42.763,17.933
		c11.955,11.726,17.933,26.21,17.933,42.993v81.616h23.221V84.146C312.781,60.926,304.503,41.153,288.18,24.83z"/>
	<path fill="#FFFFFF" d="M464.428,91.84h-92.292c3.855,30.158,25.851,51.02,62.359,51.02c16.781,0,30.839-4.988,42.177-14.738
		l16.101,16.326c-15.647,14.285-34.921,21.315-58.278,21.315c-26.53,0-47.393-7.936-62.812-23.583
		c-15.193-15.873-22.903-35.602-22.903-59.185s7.709-43.312,23.356-59.185C387.783,7.938,408.645,0,434.496,0
		c21.996,0,40.137,6.804,54.196,20.409l-15.874,16.327c-9.297-9.297-22.222-13.833-38.322-13.833
		c-33.561,0-55.329,18.594-61.452,46.035h91.385V91.84z"/>
	<path fill="#FFFFFF" d="M603.651,102.044V79.141h73.243c0.228,1.134,0.228,4.082,0.228,8.617c0,23.355-7.711,42.404-22.903,56.689
		c-15.193,14.285-34.241,21.315-57.144,21.315c-22.903,0-42.404-8.163-58.504-24.263c-16.1-16.101-24.263-35.602-24.263-58.505
		s8.163-42.405,24.263-58.504C554.671,8.164,574.172,0,597.075,0c21.542,0,40.59,7.71,56.916,22.903l-16.326,16.101
		c-11.792-10.657-25.397-16.101-40.59-16.101c-16.553,0-30.613,5.896-42.404,17.687c-11.565,11.565-17.46,25.852-17.46,42.405
		s5.895,30.613,17.46,42.404c11.564,11.564,25.851,17.46,42.404,17.46c14.286,0,26.531-3.854,36.735-11.564
		c10.431-7.709,16.1-17.46,17.234-29.251H603.651z"/>
	<path fill="#FFFFFF" d="M851.719,25.625C835.618,9.298,816.117,1.134,793.215,1.134c-22.903,0-42.632,8.164-58.73,24.491
		c-16.103,16.099-24.264,35.601-24.264,58.504v80.5h22.901v-47.393h120.183v47.393h22.903V84.356
		C876.208,61.452,868.045,41.724,851.719,25.625z M853.305,94.333H733.122V84.129c0-16.554,5.896-30.84,17.461-42.405
		c11.793-11.791,26.077-17.687,42.632-17.687c16.553,0,30.612,5.896,42.177,17.687c11.792,11.565,17.686,25.852,17.913,42.405
		V94.333z"/>
</g>
</svg>
